<?xml version="1.0" encoding="UTF-8" standalone="no"?>
<!DOCTYPE svg PUBLIC "-//W3C//DTD SVG 1.1//EN" "http://www.w3.org/Graphics/SVG/1.1/DTD/svg11.dtd">
<svg width="100%" height="100%" viewBox="0 0 292 292" version="1.1" xmlns="http://www.w3.org/2000/svg" xmlns:xlink="http://www.w3.org/1999/xlink" xml:space="preserve" xmlns:serif="http://www.serif.com/" style="fill-rule:evenodd;clip-rule:evenodd;stroke-linejoin:round;stroke-miterlimit:2;">
    <rect x="0" y="0" width="292" height="292" style="fill:rgb(8,12,16);fill-rule:nonzero;stroke:rgb(8,12,16);stroke-width:1px;"/>
    <g transform="matrix(1,0,0,1,144,26)">
        <path d="M0,0C8.424,1.709 15.054,11.657 19.625,18.438C27.017,30.173 32.107,43.343 36.949,56.289C39.372,62.935 39.372,62.935 43.597,68.412C45.512,70.579 45.36,71.928 45.328,74.789C45.323,75.731 45.318,76.674 45.312,77.645C45.292,78.628 45.271,79.612 45.25,80.625C45.245,81.585 45.24,82.546 45.234,83.535C45.178,88.73 44.866,93.809 44.231,98.963C43.894,101.935 43.793,104.886 43.75,107.875C43.724,108.966 43.698,110.056 43.672,111.18C44.041,114.355 44.626,115.014 47,117L47,119C47.701,118.918 48.403,118.835 49.125,118.75C53.878,119.163 56.811,121.763 60.043,125.125C62.505,128.742 63.328,132.082 64.25,136.312C64.423,137.053 64.595,137.794 64.773,138.557C65.194,140.368 65.599,142.184 66,144C64.438,143.927 64.438,143.927 62.844,143.852C58.954,144.002 56.921,144.634 53.5,146.375C50.334,147.93 47.766,149.056 44.312,149.875C40.319,151.231 38.282,153.288 35.238,156.125C31.241,159.473 26.652,161.695 22,164C20.866,164.577 19.731,165.155 18.562,165.75C14.363,167.223 10.268,167.873 5.867,168.473C3.003,168.999 0.622,169.74 -2,171C-3.05,172.85 -3.05,172.85 -4,175C-5.645,176.688 -7.315,178.352 -9,180C-16.733,187.993 -24.979,196.958 -30,207C-27.315,207.74 -24.629,208.475 -21.941,209.203C-20.239,209.664 -18.538,210.13 -16.84,210.609C5.502,216.665 27.092,212.368 47.5,202.609C51,201 51,201 53,201L53,199C54.688,197.853 56.427,196.782 58.188,195.75C62.852,192.877 65.731,190.327 69,186C69.784,185.423 70.567,184.845 71.375,184.25C84.092,173.35 92.37,152.254 94,136C94.258,131.436 94.344,126.883 94.375,122.312C94.389,121.185 94.403,120.057 94.417,118.896C94.359,108.26 92.148,98.606 87.75,88.938C87.446,88.261 87.143,87.585 86.83,86.888C76.704,64.899 59.108,49.381 37,40C33.162,38.316 33.162,38.316 31.75,35.562C31,33 31,33 31,30C37.725,31.238 43.179,33.204 49.188,36.438C50.009,36.876 50.831,37.314 51.677,37.765C59.487,42.056 66.304,47.148 73,53C73.766,53.654 74.531,54.307 75.32,54.98C89.918,68.404 98.473,88.909 102,108C102.288,109.437 102.288,109.437 102.582,110.902C105.858,135.18 99.379,160.968 84.953,180.816C83.018,183.257 81.025,185.633 79,188C78.237,189.011 77.474,190.021 76.688,191.062C60.569,208.681 36.439,219.864 12.618,221.126C-2.809,221.601 -15.73,219.564 -30.453,214.77C-32.876,213.904 -32.876,213.904 -35,214C-36.389,215.961 -37.726,217.962 -39,220C-39.33,219.34 -39.66,218.68 -40,218C-39.064,215.64 -38.067,213.304 -37,211C-38.296,210.631 -38.296,210.631 -39.617,210.254C-43.254,208.906 -45.96,207.168 -49.125,204.938C-53.688,201.558 -53.688,201.558 -59,200C-61.284,200.895 -61.284,200.895 -63.555,202.387C-64.417,202.913 -65.279,203.44 -66.168,203.982C-67.508,204.826 -67.508,204.826 -68.875,205.688C-69.761,206.231 -70.646,206.774 -71.559,207.334C-76.101,210.133 -80.584,213.005 -85,216C-85.66,215.67 -86.32,215.34 -87,215C-78.819,208.765 -70.497,202.797 -62,197C-63.657,193.012 -66.427,190.068 -69.25,186.875C-76.867,178.034 -81.862,168.923 -86,158C-86.373,157.031 -86.745,156.061 -87.129,155.062C-95.456,131.955 -92.393,108.798 -85,86C-84.67,85.34 -84.34,84.68 -84,84C-84.572,83.742 -85.145,83.484 -85.734,83.219C-88.211,81.886 -90.134,80.349 -92.25,78.5C-92.956,77.892 -93.663,77.283 -94.391,76.656C-96,75 -96,75 -96,73C-96.718,72.72 -97.437,72.44 -98.177,72.152C-100.892,71.044 -103.524,69.841 -106.168,68.574C-107.144,68.107 -108.121,67.64 -109.127,67.158C-110.137,66.673 -111.147,66.188 -112.188,65.688C-113.178,65.214 -114.169,64.74 -115.189,64.252C-121.492,61.231 -127.76,58.147 -134,55C-129.638,53.546 -126.447,55.397 -122.312,56.938C-120.51,57.59 -118.706,58.241 -116.902,58.891C-115.947,59.235 -114.992,59.58 -114.007,59.936C-107.842,62.118 -101.617,64.13 -95.4,66.158C-90.947,67.625 -86.558,69.145 -82.223,70.93C-74.994,73.881 -67.526,76.178 -60.098,78.57C-52.703,80.957 -45.511,83.508 -38.478,86.837C-36.155,87.927 -33.817,88.925 -31.438,89.887C-22.938,93.329 -14.679,97.035 -6.562,101.312C-5.764,101.733 -4.965,102.153 -4.143,102.587C-0.536,104.521 2.736,106.522 6,109L8,109C8.986,96.514 9.289,85.298 6.453,73.037C3.555,60 2.57,47.327 3,34C-24.183,37.175 -45.167,46.48 -64,67C-65.02,68.318 -66.027,69.647 -67,71C-69.31,70.67 -71.62,70.34 -74,70C-73.576,65.163 -71.244,62.55 -68,59.188C-67.504,58.663 -67.008,58.138 -66.496,57.597C-59.341,50.115 -52.142,43.936 -43,39C-41.389,38.116 -41.389,38.116 -39.746,37.215C-28.757,31.432 -16.776,26.786 -4.188,26.938C-3.212,26.947 -2.236,26.956 -1.23,26.965C-0.126,26.982 -0.126,26.982 1,27C0.837,26.452 0.674,25.904 0.506,25.339C-0.068,22.686 -0.113,20.293 -0.098,17.578C-0.094,16.553 -0.091,15.529 -0.088,14.473C-0.08,13.409 -0.071,12.346 -0.062,11.25C-0.058,10.171 -0.053,9.092 -0.049,7.98C-0.037,5.32 -0.021,2.66 0,0Z" style="fill:rgb(74,153,138);fill-rule:nonzero;"/>
    </g>
    <g transform="matrix(1,0,0,1,66,116)">
        <path d="M0,0C1.399,0.744 2.794,1.495 4.188,2.25C5.353,2.876 5.353,2.876 6.543,3.516C9.233,5.141 11.555,7.028 14,9C15.816,10.213 17.65,11.401 19.5,12.562C20.877,13.431 20.877,13.431 22.281,14.316C23.178,14.872 24.076,15.428 25,16C25.874,16.541 26.748,17.083 27.648,17.641C30.059,19.118 30.059,19.118 33.125,20.188C40.783,23.387 47.228,29.321 53.5,34.625C57.954,38.343 62.472,41.089 67.688,43.613C70.22,45.132 71.497,46.472 73,49C72.794,53.008 71.175,55.697 69,59C68.415,59.932 67.83,60.864 67.227,61.824C64.955,65.065 62.532,67.631 59.688,70.375C56.514,73.459 53.469,76.552 50.688,80C46.537,84.884 41.395,88.567 36.32,92.43C33.714,94.418 31.276,96.515 28.875,98.75C26,101 26,101 24.078,100.863C12.351,95.992 4.581,78.893 -0.438,67.938C-8.111,48.591 -9.713,22.585 -1.395,3.062C-0.934,2.052 -0.474,1.041 0,0Z" style="fill:rgb(8,12,16);fill-rule:nonzero;stroke:rgb(8,12,16);stroke-width:1px;"/>
    </g>
    <g transform="matrix(1,0,0,1,124,205)">
        <path d="M0,0C0.737,6.03 -1.647,9.332 -4.875,14.125C-5.79,15.523 -6.705,16.921 -7.617,18.32C-8.026,18.931 -8.434,19.543 -8.855,20.172C-10.039,22.062 -11.034,23.991 -12,26C-16.228,25.422 -19.103,23.972 -22.688,21.688C-23.64,21.093 -24.593,20.499 -25.574,19.887C-27.978,18.017 -28.94,16.808 -30,14C-25.337,11.054 -20.665,8.124 -15.975,5.223C-14.349,4.216 -12.729,3.203 -11.109,2.188C-10.351,1.734 -9.593,1.28 -8.812,0.812C-8.18,0.427 -7.547,0.042 -6.895,-0.355C-4.337,-1.226 -2.565,-0.695 0,0Z" style="fill:rgb(8,12,16);fill-rule:nonzero;"/>
    </g>
    <g transform="matrix(1,0,0,1,10,80)">
        <path d="M0,0C5.224,0.533 9.226,1.86 14,4C16.983,5.055 19.987,6.037 23,7C22.01,7.33 21.02,7.66 20,8L20,10C15.262,8.557 11.011,6.628 6.625,4.375C5.664,3.888 5.664,3.888 4.684,3.391C3.121,2.597 1.56,1.799 0,1L0,0Z" style="fill:rgb(79,119,128);fill-rule:nonzero;"/>
    </g>
    <g transform="matrix(1,0,0,1,121,218)">
        <path d="M0,0C0.33,0.99 0.66,1.98 1,3C-0.363,5.41 -0.363,5.41 -2.312,8.062C-3.266,9.379 -3.266,9.379 -4.238,10.723C-6,13 -6,13 -8,15C-8.953,12.44 -9.116,11.311 -8.145,8.711C-7.485,7.555 -7.485,7.555 -6.812,6.375C-6.386,5.599 -5.959,4.823 -5.52,4.023C-3.858,1.811 -2.543,1.013 0,0Z" style="fill:rgb(75,140,133);fill-rule:nonzero;"/>
    </g>
    <g transform="matrix(1,0,0,1,72,230)">
        <path d="M0,0C0.99,0.33 1.98,0.66 3,1C-0.44,3.826 -3.951,6.391 -7.688,8.812C-8.64,9.438 -9.593,10.063 -10.574,10.707C-11.375,11.134 -12.175,11.56 -13,12C-13.66,11.67 -14.32,11.34 -15,11C-13.063,9.541 -11.126,8.083 -9.188,6.625C-8.64,6.213 -8.093,5.8 -7.529,5.375C-5.056,3.516 -2.576,1.717 0,0Z" style="fill:rgb(87,109,131);fill-rule:nonzero;"/>
    </g>
    <g transform="matrix(1,0,0,1,82,223)">
        <path d="M0,0C0.33,1.32 0.66,2.64 1,4C-4.625,8 -4.625,8 -8,8C-6.498,3.794 -3.714,2.261 0,0Z" style="fill:rgb(76,135,132);fill-rule:nonzero;"/>
    </g>
</svg>
